<?xml version="1.0" ?><svg viewBox="0 0 32 32" xmlns="http://www.w3.org/2000/svg"><title/><g id="meat"><path d="M29.12,22.75a3,3,0,0,0-3.41-.59l-4.31-4.3c-.08.16-.15.31-.23.47a9.15,9.15,0,0,1-2.62,2.84c-.19.13-.38.23-.57.35l4.19,4.19A3,3,0,0,0,24.88,30h0a3,3,0,0,0,2.88-2.23A2.94,2.94,0,0,0,29.12,27a3,3,0,0,0,0-4.24Z"/><path d="M20.34,11.26,15.09,4a4.91,4.91,0,0,0-3.67-2A7.25,7.25,0,0,0,5.85,4.25l-1.6,1.6A7.24,7.24,0,0,0,2,11.24a5,5,0,0,0,1.77,3.67l6.85,5.65a5.15,5.15,0,0,0,3.32,1.15,7,7,0,0,0,4-1.36,8.14,8.14,0,0,0,2.33-2.53A6,6,0,0,0,20.34,11.26Z"/></g></svg>